<svg viewBox="0 0 128 128" fill="none" xmlns="http://www.w3.org/2000/svg">
<rect width="128" height="128" rx="24" fill="url(#phantom_gradient)"/>
<g clip-path="url(#phantom_clip)">
<path d="M96.3 39.5C93.5 36.3 89 33.7 83.1 32C71.9 29 59.4 30.1 49.5 35.7C45.2 38.3 41.7 41.7 39.3 45.8C36.9 49.9 35.9 54.7 36.3 59.4C36.8 63.8 38.6 68 41.4 71.3C44.3 74.6 48.1 76.8 52.3 77.7C56.5 78.6 60.9 78.1 64.8 76.5C68.7 74.9 72 72.1 74.1 68.5C74.7 67.4 75.2 66.3 75.5 65.1C75.8 63.4 75.8 61.7 75.2 60C74.6 58.3 73.7 56.8 72.4 55.5C71.1 54.2 69.5 53.3 67.8 52.8C66.1 52.3 64.3 52.3 62.6 52.8C61 53.3 59.5 54.2 58.3 55.5C57.1 56.8 56.3 58.3 55.9 60C55.7 60.8 55.6 61.7 55.7 62.5C55.8 63.4 56.1 64.2 56.5 65C56.9 65.8 57.5 66.5 58.2 67.1C58.9 67.7 59.7 68.1 60.6 68.3C61.5 68.5 62.4 68.5 63.3 68.2C64.2 68 65 67.5 65.7 66.9C66.2 66.5 66.5 66 66.8 65.4C67 64.9 67.2 64.3 67.2 63.7C67.2 63.1 67.1 62.6 66.8 62.1C66.5 61.6 66.2 61.2 65.7 60.8C65.2 60.5 64.7 60.2 64.1 60.1C63.5 60 63 60 62.4 60.2" stroke="white" stroke-width="3" stroke-linecap="round"/>
<ellipse cx="58.5" cy="52" rx="4" ry="5.5" fill="white"/>
<ellipse cx="74.5" cy="52" rx="4" ry="5.5" fill="white"/>
</g>
<defs>
<linearGradient id="phantom_gradient" x1="0" y1="0" x2="128" y2="128" gradientUnits="userSpaceOnUse">
<stop stop-color="#534BB1"/>
<stop offset="1" stop-color="#551BF9"/>
</linearGradient>
<clipPath id="phantom_clip">
<rect width="128" height="128" rx="24" fill="white"/>
</clipPath>
</defs>
</svg>
