<svg viewBox="0 0 128 128" fill="none" xmlns="http://www.w3.org/2000/svg">
<rect width="128" height="128" rx="24" fill="url(#phantom-gradient)"/>
<path d="M96.3 39.5C93.3 36.1 88.1 33.3 81.5 31.5C69.5 28.3 55.9 29.5 45.3 35.5C40.7 38.2 36.9 41.8 34.4 46.1C31.8 50.5 30.7 55.6 31.2 60.6C31.7 65.3 33.7 69.7 36.8 73.2C39.9 76.7 44 79.1 48.5 80.1C53 81.1 57.7 80.6 61.9 78.8C66.1 77 69.6 73.9 71.9 70.1C72.6 68.9 73.1 67.6 73.4 66.2C73.8 64.3 73.7 62.4 73.1 60.5C72.5 58.6 71.5 56.9 70.1 55.5C68.7 54.1 67 53.1 65.1 52.6C63.2 52.1 61.3 52.1 59.5 52.6L59.4 52.6C57.6 53.1 56 54.1 54.7 55.5C53.4 56.9 52.5 58.6 52.1 60.5C51.9 61.4 51.8 62.4 51.9 63.4C52 64.4 52.3 65.4 52.8 66.3C53.3 67.2 54 68 54.8 68.6C55.6 69.2 56.6 69.6 57.6 69.8C58.6 70 59.6 70 60.6 69.7C61.6 69.4 62.5 68.9 63.3 68.2C63.8 67.7 64.2 67.2 64.5 66.5C64.8 65.9 65 65.2 65 64.5C65 63.8 64.9 63.2 64.6 62.6C64.3 62 63.9 61.5 63.4 61.1C62.9 60.7 62.3 60.4 61.6 60.3C60.9 60.2 60.3 60.2 59.6 60.4C59.3 60.5 59 60.6 58.7 60.8C58.4 61 58.2 61.2 58 61.5L58 61.5C57.6 62 57.5 62.7 57.6 63.3C57.7 63.9 58 64.4 58.5 64.8C58.7 65 59 65.1 59.2 65.2C59.5 65.3 59.7 65.3 60 65.2C60.2 65.1 60.5 65 60.7 64.8C60.9 64.6 61 64.4 61.1 64.1L61.1 64.1C61.2 63.9 61.2 63.6 61.1 63.4C61 63.2 60.8 63 60.6 62.9C60.4 62.8 60.2 62.8 60 62.9C59.8 63 59.6 63.1 59.5 63.3" fill="white"/>
<defs>
<linearGradient id="phantom-gradient" x1="0" y1="0" x2="128" y2="128" gradientUnits="userSpaceOnUse">
<stop stop-color="#534BB1"/>
<stop offset="1" stop-color="#551BF9"/>
</linearGradient>
</defs>
</svg>
